name C:\Users\antoi\Documents\MyRepositories\upper-imu-dc\Results\main_tracking\Case_69\FLX01_angularVelocities_groundFrame.mot
datacolumns 4
datarows 82
range 2.01000000 2.82000000
endheader 
time	radius_imu_x	radius_imu_y	radius_imu_z	
          2.01000000	         -0.70555545	         -0.46527600	          1.04418565	
          2.02000000	         -0.70969341	         -0.47581979	          1.03577774	
          2.03000000	         -0.71155142	         -0.48374112	          1.02755859	
          2.04000000	         -0.71086014	         -0.48890121	          1.01962969	
          2.05000000	         -0.70746155	         -0.49123146	          1.01207558	
          2.06000000	         -0.70133460	         -0.49074831	          1.00496308	
          2.07000000	         -0.69262149	         -0.48757242	          0.99833714	
          2.08000000	         -0.68164518	         -0.48194916	          0.99221506	
          2.09000000	         -0.66890946	         -0.47426380	          0.98658203	
          2.10000000	         -0.65507521	         -0.46504378	          0.98138987	
          2.11000000	         -0.64091057	         -0.45494129	          0.97656049	
          2.12000000	         -0.62721789	         -0.44469268	          0.97199426	
          2.13000000	         -0.61474644	         -0.43505770	          0.96758339	
          2.14000000	         -0.60410569	         -0.42674814	          0.96322948	
          2.15000000	         -0.59570004	         -0.42036235	          0.95886148	
          2.16000000	         -0.58970245	         -0.41634185	          0.95444823	
          2.17000000	         -0.58606843	         -0.41495558	          0.95000111	
          2.18000000	         -0.58457773	         -0.41630596	          0.94556660	
          2.19000000	         -0.58488510	         -0.42034599	          0.94121165	
          2.20000000	         -0.58656721	         -0.42689868	          0.93700679	
          2.21000000	         -0.58916154	         -0.43567742	          0.93301080	
          2.22000000	         -0.59220018	         -0.44631134	          0.92925897	
          2.23000000	         -0.59524410	         -0.45838156	          0.92575538	
          2.24000000	         -0.59791685	         -0.47146772	          0.92246870	
          2.25000000	         -0.59993012	         -0.48519541	          0.91933164	
          2.26000000	         -0.60109420	         -0.49927305	          0.91624348	
          2.27000000	         -0.60131167	         -0.51350990	          0.91307482	
          2.28000000	         -0.60055689	         -0.52781150	          0.90967441	
          2.29000000	         -0.59884560	         -0.54215315	          0.90587871	
          2.30000000	         -0.59620181	         -0.55653809	          0.90152399	
          2.31000000	         -0.59262687	         -0.57094790	          0.89646042	
          2.32000000	         -0.58807746	         -0.58529587	          0.89056673	
          2.33000000	         -0.58245795	         -0.59939554	          0.88376214	
          2.34000000	         -0.57562976	         -0.61295339	          0.87601361	
          2.35000000	         -0.56743760	         -0.62559070	          0.86733700	
          2.36000000	         -0.55774458	         -0.63688851	          0.85779260	
          2.37000000	         -0.54646612	         -0.64644255	          0.84747693	
          2.38000000	         -0.53359694	         -0.65391561	          0.83651281	
          2.39000000	         -0.51922794	         -0.65907769	          0.82503872	
          2.40000000	         -0.50355078	         -0.66182687	          0.81319892	
          2.41000000	         -0.48684943	         -0.66218918	          0.80113508	
          2.42000000	         -0.46948074	         -0.66030185	          0.78898021	
          2.43000000	         -0.45184767	         -0.65638666	          0.77685485	
          2.44000000	         -0.43436805	         -0.65071858	          0.76486602	
          2.45000000	         -0.41744171	         -0.64359268	          0.75310883	
          2.46000000	         -0.40141835	         -0.63529154	          0.74167040	
          2.47000000	         -0.38656953	         -0.62605605	          0.73063466	
          2.48000000	         -0.37306836	         -0.61606418	          0.72008639	
          2.49000000	         -0.36098133	         -0.60542342	          0.71011256	
          2.50000000	         -0.35027447	         -0.59418043	          0.70080012	
          2.51000000	         -0.34083250	         -0.58234494	          0.69223054	
          2.52000000	         -0.33248583	         -0.56991950	          0.68447237	
          2.53000000	         -0.32504057	         -0.55692698	          0.67757322	
          2.54000000	         -0.31830750	         -0.54343072	          0.67155224	
          2.55000000	         -0.31212602	         -0.52954471	          0.66639461	
          2.56000000	         -0.30638028	         -0.51543349	          0.66204942	
          2.57000000	         -0.30100624	         -0.50130396	          0.65843152	
          2.58000000	         -0.29598985	         -0.48739202	          0.65542762	
          2.59000000	         -0.29135791	         -0.47394607	          0.65290643	
          2.60000000	         -0.28716360	         -0.46120895	          0.65073178	
          2.61000000	         -0.28346935	         -0.44939873	          0.64877704	
          2.62000000	         -0.28032980	         -0.43869005	          0.64693773	
          2.63000000	         -0.27777724	         -0.42919828	          0.64514006	
          2.64000000	         -0.27581104	         -0.42096929	          0.64334355	
          2.65000000	         -0.27439250	         -0.41397839	          0.64153770	
          2.66000000	         -0.27344450	         -0.40813807	          0.63973492	
          2.67000000	         -0.27285527	         -0.40331257	          0.63796213	
          2.68000000	         -0.27248466	         -0.39933598	          0.63625262	
          2.69000000	         -0.27217166	         -0.39602883	          0.63464023	
          2.70000000	         -0.27174300	         -0.39321105	          0.63315589	
          2.71000000	         -0.27102334	         -0.39071300	          0.63182570	
          2.72000000	         -0.26984681	         -0.38838631	          0.63066905	
          2.73000000	         -0.26806843	         -0.38611368	          0.62969553	
          2.74000000	         -0.26557328	         -0.38381408	          0.62890076	
          2.75000000	         -0.26228161	         -0.38144000	          0.62826192	
          2.76000000	         -0.25814987	         -0.37896713	          0.62773451	
          2.77000000	         -0.25316871	         -0.37638114	          0.62725106	
          2.78000000	         -0.24735974	         -0.37366734	          0.62672235	
          2.79000000	         -0.24077183	         -0.37080642	          0.62604083	
          2.80000000	         -0.23347688	         -0.36777546	          0.62508603	
          2.81000000	         -0.22556453	         -0.36455154	          0.62373150	
          2.82000000	         -0.21713555	         -0.36111453	          0.62185307	
